<?xml version="1.0" encoding="UTF-8"?>
<svg width="16px" height="16px" viewBox="0 0 16 16" version="1.1" xmlns="http://www.w3.org/2000/svg" xmlns:xlink="http://www.w3.org/1999/xlink">
    <!-- Generator: Sketch 52.1 (67048) - http://www.bohemiancoding.com/sketch -->
    <title>icon_info</title>
    <desc>Created with Sketch.</desc>
    <g id="1.6-供应商" stroke="none" stroke-width="1" fill="none" fill-rule="evenodd">
        <g id="新建供应商" transform="translate(-1014.000000, -483.000000)">
            <g id="icon_info" transform="translate(1013.000000, 482.000000)">
                <rect id="Rectangle" fill="#000000" opacity="0" x="0" y="0" width="18" height="18"></rect>
                <path d="M9,16.8401426 C4.6771875,16.8401426 1.15985742,13.323375 1.15985742,9 C1.15985742,4.6771875 4.6771875,1.15985742 9,1.15985742 C13.323375,1.15985742 16.8401426,4.676625 16.8401426,9 C16.8401426,13.323375 13.323375,16.8401426 9,16.8401426 Z M9,2.28485742 C5.2970625,2.28485742 2.28485742,5.29704492 2.28485742,9 C2.28485742,12.7023926 5.29704492,15.7151426 9,15.7151426 C12.7023926,15.7151426 15.7151426,12.7029551 15.7151426,9 C15.7151426,5.29704492 12.7023926,2.28485742 9,2.28485742 Z M8.15625,5.34375 C8.15625,5.80974609 8.53400391,6.1875 9,6.1875 C9.46599609,6.1875 9.84375,5.80974609 9.84375,5.34375 C9.84375,4.87775391 9.46599609,4.5 9,4.5 C8.53400391,4.5 8.15625,4.87775391 8.15625,5.34375 Z M9,13.5 C8.68948242,13.5 8.4375,13.2485801 8.4375,12.9375 L8.4375,7.875 C8.4375,7.56448242 8.68948242,7.3125 9,7.3125 C9.31051758,7.3125 9.5625,7.56448242 9.5625,7.875 L9.5625,12.9375 C9.5625,13.2485801 9.31051758,13.5 9,13.5 Z" id="Shape" fill="#9595B1" fill-rule="nonzero"></path>
            </g>
        </g>
    </g>
</svg>